HIERARCHY
ROOT Hips
{
	OFFSET -0.001795 -0.223333 0.028219
	CHANNELS 6 Xposition Yposition Zposition Zrotation Yrotation Xrotation 
	JOINT LeftUpLeg
	{
		OFFSET 0.069520 -0.091406 -0.006815
		CHANNELS 3 Zrotation Yrotation Xrotation
		JOINT LeftLeg
		{
			OFFSET 0.034277 -0.375199 -0.004496
			CHANNELS 3 Zrotation Yrotation Xrotation
			JOINT LeftFoot
			{
				OFFSET -0.013596 -0.397961 -0.043693
				CHANNELS 3 Zrotation Yrotation Xrotation
				JOINT LeftToe
				{
					OFFSET 0.026358 -0.055791 0.119288
					CHANNELS 3 Zrotation Yrotation Xrotation
					End Site
					{
						OFFSET 0.000000 0.000000 0.000000
					}
				}
			}
		}
	}
	JOINT RightUpLeg
	{
		OFFSET -0.067670 -0.090522 -0.004320
		CHANNELS 3 Zrotation Yrotation Xrotation
		JOINT RightLeg
		{
			OFFSET -0.038290 -0.382569 -0.008850
			CHANNELS 3 Zrotation Yrotation Xrotation
			JOINT RightFoot
			{
				OFFSET 0.015774 -0.398415 -0.042312
				CHANNELS 3 Zrotation Yrotation Xrotation
				JOINT RightToe
				{
					OFFSET -0.025372 -0.048144 0.123348
					CHANNELS 3 Zrotation Yrotation Xrotation
					End Site
					{
						OFFSET 0.000000 0.000000 0.000000
					}
				}
			}
		}
	}
	JOINT Spine
	{
		OFFSET -0.002533 0.108963 -0.026696
		CHANNELS 3 Zrotation Yrotation Xrotation
		JOINT Spine1
		{
			OFFSET 0.005487 0.135180 0.001092
			CHANNELS 3 Zrotation Yrotation Xrotation
			JOINT Spine2
			{
				OFFSET 0.001457 0.052922 0.025425
				CHANNELS 3 Zrotation Yrotation Xrotation
				JOINT Neck
				{
					OFFSET -0.002778 0.213870 -0.042857
					CHANNELS 3 Zrotation Yrotation Xrotation
					JOINT Head
					{
						OFFSET 0.005152 0.064970 0.051349
						CHANNELS 3 Zrotation Yrotation Xrotation
						End Site
						{
							OFFSET 0.000000 0.000000 0.000000
						}
					}
				}
				JOINT LeftShoulder
				{
					OFFSET 0.078845 0.121749 -0.034090
					CHANNELS 3 Zrotation Yrotation Xrotation
					JOINT LeftArm
					{
						OFFSET 0.090977 0.030469 -0.008868
						CHANNELS 3 Zrotation Yrotation Xrotation
						JOINT LeftForeArm
						{
							OFFSET 0.259612 -0.012772 -0.027456
							CHANNELS 3 Zrotation Yrotation Xrotation
							JOINT LeftHand
							{
								OFFSET 0.249234 0.008986 -0.001171
								CHANNELS 3 Zrotation Yrotation Xrotation
								End Site
								{
									OFFSET 0.000000 0.000000 0.000000
								}
							}
						}
					}
				}
				JOINT RightShoulder
				{
					OFFSET -0.081759 0.118833 -0.038615
					CHANNELS 3 Zrotation Yrotation Xrotation
					JOINT RightArm
					{
						OFFSET -0.096012 0.032551 -0.009143
						CHANNELS 3 Zrotation Yrotation Xrotation
						JOINT RightForeArm
						{
							OFFSET -0.253742 -0.013329 -0.021401
							CHANNELS 3 Zrotation Yrotation Xrotation
							JOINT RightHand
							{
								OFFSET -0.255298 0.007772 -0.005559
								CHANNELS 3 Zrotation Yrotation Xrotation
								End Site
								{
									OFFSET 0.000000 0.000000 0.000000
								}
							}
						}
					}
				}
			}
		}
	}
}
MOTION
Frames: 18
Frame Time: 0.050000
0.000000 0.941262 0.000000 -0.766060 -1.378352 7.312369 5.910619 -0.319100 -4.049871 -2.835442 0.438428 -11.849532 -6.141554 -7.574347 8.971016 0.000000 0.000000 0.000000 -4.267863 0.521462 -5.315490 -3.139948 -0.027891 -5.146561 -4.201291 -11.901000 5.913680 0.000000 0.000000 0.000000 5.384554 0.334888 -5.705133 -2.342928 1.094253 -3.215844 -3.922556 4.281208 1.407242 6.668696 -3.717868 -8.169005 0.000000 0.000000 0.000000 -16.489120 -1.470098 -1.859687 -55.176445 -4.556797 -4.062989 -8.891497 -15.021952 1.585167 0.000000 0.000000 0.000000 15.143046 -5.658058 -3.511863 62.020917 3.144800 -3.822495 8.718683 19.091853 2.052440 0.000000 0.000000 0.000000 
0.000251 0.940665 0.000067 -0.948635 -2.225860 7.899732 5.661484 -0.302943 -3.642293 -2.117272 0.479987 -13.431821 -5.835343 -6.898611 9.354958 0.000000 0.000000 0.000000 -4.147528 0.584914 -6.101257 -3.166862 -0.033065 -5.181080 -3.877260 -11.244696 5.820643 0.000000 0.000000 0.000000 6.461186 0.377105 -5.964946 -3.096715 1.409470 -3.584670 -4.622855 4.996080 0.703223 7.244415 -4.049243 -8.315857 0.000000 0.000000 0.000000 -17.424149 -1.086642 -2.305379 -53.750781 -4.525224 -3.835815 -9.633056 -14.681801 1.626523 0.000000 0.000000 0.000000 14.847621 -6.739697 -3.975022 63.016974 1.952647 -4.378438 9.085037 18.826919 2.081326 0.000000 0.000000 0.000000 
0.000350 0.940649 -0.000032 -0.622891 -1.830102 7.580107 5.354035 -0.311996 -3.802464 -2.202793 0.457476 -12.690858 -5.983949 -7.250886 9.120407 0.000000 0.000000 0.000000 -4.254141 0.566287 -5.925693 -3.573278 0.021824 -4.742245 -4.078425 -11.613685 5.668658 0.000000 0.000000 0.000000 5.877585 0.327378 -5.547628 -2.538616 1.168519 -4.359194 -4.953504 4.472816 0.749342 6.719419 -3.936972 -7.049120 0.000000 0.000000 0.000000 -17.369573 -1.467008 -2.050363 -53.609167 -3.872544 -4.130310 -9.285571 -14.341549 1.555311 0.000000 0.000000 0.000000 16.050473 -5.533989 -3.528131 61.472796 1.581114 -4.566495 8.974564 19.039852 2.081238 0.000000 0.000000 0.000000 
0.000324 0.940600 -0.000090 -0.727429 -1.743500 7.882733 5.680621 -0.326642 -4.098591 -2.552405 0.457413 -12.780491 -6.021203 -7.252508 9.230524 0.000000 0.000000 0.000000 -4.166904 0.608045 -6.520474 -3.521927 0.053716 -4.238539 -4.155503 -11.752395 5.558334 0.000000 0.000000 0.000000 5.903646 0.329124 -5.629706 -2.757991 1.265683 -3.780564 -4.552210 3.842700 -0.827258 7.207116 -4.503588 -5.806670 0.000000 0.000000 0.000000 -17.027852 -0.948453 -2.169425 -54.288415 -4.166356 -3.930343 -8.479809 -13.758701 1.401663 0.000000 0.000000 0.000000 14.470387 -5.601566 -3.534396 61.944694 0.971730 -4.710997 10.338410 19.208069 2.272856 0.000000 0.000000 0.000000 
0.000136 0.941110 -0.000231 -0.703250 -1.054061 7.818594 5.645659 -0.341479 -4.279079 -2.472226 0.442038 -12.565000 -6.366198 -7.725432 9.373784 0.000000 0.000000 0.000000 -4.105978 0.586572 -6.271647 -3.552648 0.052978 -4.327109 -4.413593 -12.308512 5.775833 0.000000 0.000000 0.000000 5.439916 0.310963 -5.564512 -2.165170 1.017636 -3.649137 -4.674073 3.382721 -0.987558 7.362771 -4.611148 -5.799908 0.000000 0.000000 0.000000 -16.892301 -1.157886 -2.041793 -54.333754 -4.570064 -3.738215 -8.944800 -13.751641 1.455227 0.000000 0.000000 0.000000 14.354241 -5.667013 -3.563335 61.531531 0.888796 -4.703822 10.669140 19.040567 2.297372 0.000000 0.000000 0.000000 
-0.000028 0.941493 -0.000308 -0.791636 -1.191716 7.870189 5.833136 -0.339893 -4.315385 -2.615626 0.444174 -12.558341 -6.313527 -7.599105 9.454987 0.000000 0.000000 0.000000 -3.975700 0.586610 -6.232026 -3.606260 0.039083 -4.562669 -4.322664 -12.156675 5.938637 0.000000 0.000000 0.000000 5.238695 0.302693 -5.493793 -2.026793 0.957164 -3.878343 -4.412792 3.433321 -1.073008 8.116416 -5.187654 -5.622517 0.000000 0.000000 0.000000 -16.961013 -0.942694 -2.145412 -54.310254 -4.404374 -3.801341 -8.961203 -14.083825 1.492289 0.000000 0.000000 0.000000 14.042093 -5.537741 -3.477867 61.721666 0.837173 -4.728858 10.431979 18.745281 2.216571 0.000000 0.000000 0.000000 
-0.000157 0.941759 -0.000357 -0.891008 -0.944352 7.853999 5.925505 -0.344168 -4.375912 -2.552583 0.439170 -12.496786 -6.430517 -7.757017 9.505586 0.000000 0.000000 0.000000 -3.699337 0.579799 -6.117830 -3.849691 0.048449 -4.653415 -4.397722 -12.329964 6.090750 0.000000 0.000000 0.000000 4.970330 0.282507 -5.328650 -1.817844 0.869147 -3.617775 -4.257363 3.055029 -1.300438 8.359010 -5.254146 -6.141085 0.000000 0.000000 0.000000 -16.734838 -0.543230 -2.254944 -54.346819 -4.391964 -3.803496 -9.451351 -14.807169 1.635531 0.000000 0.000000 0.000000 14.146673 -5.416744 -3.479529 61.622814 0.712423 -4.779771 10.128090 18.574467 2.135726 0.000000 0.000000 0.000000 
-0.000212 0.942063 -0.000336 -1.054952 -0.959202 7.978969 6.068113 -0.355186 -4.675447 -2.465525 0.434709 -12.191797 -6.372480 -7.716388 9.399805 0.000000 0.000000 0.000000 -3.414193 0.579124 -6.055894 -4.029162 0.031949 -5.016322 -4.344369 -12.265725 6.332795 0.000000 0.000000 0.000000 4.840329 0.269774 -5.217715 -1.675972 0.807611 -3.610213 -4.042475 2.983460 -1.424777 8.731631 -5.462066 -6.406200 0.000000 0.000000 0.000000 -16.595624 -0.080569 -2.437242 -54.251596 -4.199051 -3.877499 -10.081494 -16.090533 1.865307 0.000000 0.000000 0.000000 14.101863 -5.599405 -3.587498 61.635292 0.591032 -4.833056 10.155971 18.301382 2.098078 0.000000 0.000000 0.000000 
-0.000244 0.942311 -0.000285 -1.169714 -0.924509 8.017230 6.210491 -0.355760 -4.712307 -2.483730 0.434322 -12.198456 -6.389812 -7.718278 9.447251 0.000000 0.000000 0.000000 -3.145612 0.568903 -5.883361 -4.269573 0.017532 -5.385762 -4.311739 -12.239290 6.561071 0.000000 0.000000 0.000000 4.769170 0.257630 -5.093709 -1.619284 0.784031 -3.699594 -3.750035 3.045040 -1.399130 9.326738 -5.827929 -6.664692 0.000000 0.000000 0.000000 -16.209035 0.051664 -2.440193 -54.340801 -4.094293 -3.946189 -10.962408 -16.849934 2.079887 0.000000 0.000000 0.000000 14.184426 -5.698259 -3.645251 61.306437 0.366840 -4.927138 10.440498 18.129455 2.116635 0.000000 0.000000 0.000000 
-0.000286 0.942584 -0.000200 -1.253711 -1.024444 8.015133 6.344383 -0.352416 -4.707199 -2.556105 0.435500 -12.154042 -6.343037 -7.635335 9.463748 0.000000 0.000000 0.000000 -3.030330 0.562045 -5.774160 -4.312692 0.002543 -5.604677 -4.237892 -12.116768 6.689856 0.000000 0.000000 0.000000 4.823602 0.245039 -4.931131 -1.621235 0.784017 -3.731552 -3.496179 3.052214 -1.444118 9.898580 -6.047906 -7.502948 0.000000 0.000000 0.000000 -15.876352 0.402884 -2.536244 -54.490836 -4.151892 -3.942736 -11.771094 -17.663398 2.305326 0.000000 0.000000 0.000000 14.011745 -5.593098 -3.590703 61.248207 0.506448 -4.850150 10.295532 17.510100 2.009189 0.000000 0.000000 0.000000 
-0.000323 0.942844 -0.000089 -1.295121 -1.198177 8.002588 6.505137 -0.344737 -4.613277 -2.767221 0.439889 -12.220196 -6.283125 -7.501371 9.541651 0.000000 0.000000 0.000000 -2.947648 0.565728 -5.807948 -4.394316 0.008823 -5.567186 -4.154843 -11.960568 6.713356 0.000000 0.000000 0.000000 4.903127 0.239278 -4.838103 -1.642217 0.791051 -3.696142 -3.477802 3.254530 -1.414974 10.199989 -6.227650 -7.624498 0.000000 0.000000 0.000000 -15.747472 0.370302 -2.520402 -54.515612 -4.118479 -3.963572 -12.059749 -18.163679 2.411355 0.000000 0.000000 0.000000 14.211690 -5.674108 -3.636318 61.243557 0.682702 -4.761853 10.426791 17.216783 1.992582 0.000000 0.000000 0.000000 
-0.000334 0.943044 0.000064 -1.350345 -1.404801 8.044231 6.715170 -0.340789 -4.646888 -3.038829 0.443502 -12.149680 -6.183729 -7.340795 9.549523 0.000000 0.000000 0.000000 -2.778959 0.561683 -5.728648 -4.610751 -0.002839 -5.845780 -4.032907 -11.752242 6.856857 0.000000 0.000000 0.000000 4.944886 0.235464 -4.783681 -1.694681 0.811165 -3.614975 -3.257573 3.282405 -1.448903 10.204419 -6.209728 -7.735544 0.000000 0.000000 0.000000 -15.765923 0.727133 -2.669877 -54.525056 -4.216574 -3.919094 -12.036218 -18.292214 2.428873 0.000000 0.000000 0.000000 13.945135 -5.820166 -3.698275 61.158093 0.610971 -4.786560 10.619053 17.279435 2.022306 0.000000 0.000000 0.000000 
-0.000316 0.943201 0.000244 -1.407971 -1.566672 8.136230 6.625354 -0.339774 -4.613527 -2.778610 0.447477 -12.308165 -6.115072 -7.212815 9.590331 0.000000 0.000000 0.000000 -2.604557 0.561924 -5.708631 -4.832211 -0.013069 -6.096623 -3.933795 -11.588530 6.995574 0.000000 0.000000 0.000000 4.959225 0.237406 -4.807825 -1.604270 0.769965 -3.473374 -3.195000 3.419615 -1.655914 10.084309 -6.174696 -7.469008 0.000000 0.000000 0.000000 -15.985331 0.886383 -2.795424 -54.243239 -4.188120 -3.881936 -12.218017 -18.021877 2.417518 0.000000 0.000000 0.000000 14.010431 -6.054144 -3.819087 60.941563 0.536876 -4.783515 10.963311 17.551450 2.106842 0.000000 0.000000 0.000000 
-0.000305 0.943194 0.000420 -1.495834 -1.544134 8.255877 6.531364 -0.348248 -4.771664 -2.433767 0.444885 -12.241316 -6.088748 -7.215304 9.497592 0.000000 0.000000 0.000000 -2.442364 0.579927 -5.919516 -4.952235 0.006634 -5.922324 -3.950956 -11.619639 6.974782 0.000000 0.000000 0.000000 4.946250 0.245714 -4.926170 -1.441913 0.698541 -3.264421 -3.112595 3.380975 -1.815651 10.010757 -6.197212 -7.110559 0.000000 0.000000 0.000000 -15.930455 0.972555 -2.824492 -54.336121 -4.072356 -3.927816 -12.374169 -17.806556 2.411459 0.000000 0.000000 0.000000 13.847481 -6.259229 -3.908183 60.824889 0.308180 -4.869600 11.204127 18.085915 2.213281 0.000000 0.000000 0.000000 
-0.000325 0.943065 0.000560 -1.393403 -1.444243 8.342378 6.416473 -0.356289 -4.866286 -2.419863 0.443556 -12.266551 -6.139785 -7.283195 9.522614 0.000000 0.000000 0.000000 -2.547995 0.581594 -5.944331 -4.955744 0.000922 -5.998058 -4.003821 -11.722738 6.980935 0.000000 0.000000 0.000000 4.898337 0.245885 -4.960288 -1.365384 0.667714 -3.471998 -3.219705 3.352726 -1.751958 9.830348 -6.097981 -6.989302 0.000000 0.000000 0.000000 -16.115402 1.153647 -2.951448 -54.154924 -3.872102 -4.002207 -12.419668 -17.640934 2.394376 0.000000 0.000000 0.000000 13.599394 -6.472765 -3.971366 60.809075 -0.185837 -5.113159 11.621023 18.836277 2.384936 0.000000 0.000000 0.000000 
-0.000365 0.942900 0.000569 -1.228484 -1.345329 8.484292 6.229987 -0.369576 -5.058484 -2.395751 0.441542 -12.246519 -6.190013 -7.347714 9.552959 0.000000 0.000000 0.000000 -2.751728 0.600125 -6.191407 -4.910797 0.015214 -5.798172 -4.086360 -11.866225 6.882038 0.000000 0.000000 0.000000 4.838949 0.244040 -4.982461 -1.436287 0.699014 -3.496813 -3.403344 3.522130 -1.843476 9.590909 -6.030359 -6.474437 0.000000 0.000000 0.000000 -16.076150 1.039909 -2.945451 -53.979957 -3.777083 -4.014484 -12.247268 -17.157770 2.293070 0.000000 0.000000 0.000000 13.402344 -6.755561 -4.043853 61.008998 -0.612508 -5.315155 11.842230 19.594943 2.541773 0.000000 0.000000 0.000000 
-0.000424 0.942736 0.000541 -1.108526 -1.436797 8.425334 6.077044 -0.367195 -4.983133 -2.363535 0.442890 -12.247898 -6.152848 -7.307384 9.519586 0.000000 0.000000 0.000000 -2.891940 0.606778 -6.294195 -4.905830 0.036328 -5.532436 -4.082238 -11.829169 6.714334 0.000000 0.000000 0.000000 4.815106 0.228716 -4.787131 -1.492974 0.723420 -3.588656 -3.583573 3.547114 -1.772561 8.930943 -5.616841 -6.237431 0.000000 0.000000 0.000000 -15.930857 1.200021 -3.000669 -53.976181 -3.671950 -4.072888 -12.138474 -17.290681 2.294369 0.000000 0.000000 0.000000 13.352207 -6.863039 -4.084476 61.061601 -0.814624 -5.427288 12.006269 20.240608 2.667875 0.000000 0.000000 0.000000 
-0.000478 0.942594 0.000522 -1.004660 -1.441789 8.536556 5.973162 -0.373509 -5.060410 -2.373331 0.444570 -12.336010 -6.162735 -7.297013 9.573415 0.000000 0.000000 0.000000 -2.892206 0.612924 -6.365438 -5.112899 0.039037 -5.626884 -4.085184 -11.841744 6.741855 0.000000 0.000000 0.000000 4.904451 0.243737 -4.978611 -1.658994 0.793757 -3.445950 -3.833438 3.690340 -1.744539 8.575034 -5.456177 -5.781722 0.000000 0.000000 0.000000 -15.868428 1.071405 -2.966316 -53.842437 -3.787530 -4.009179 -11.881615 -16.883852 2.197106 0.000000 0.000000 0.000000 13.375852 -7.174439 -4.208002 61.197070 -1.005749 -5.526445 12.378925 21.032288 2.863441 0.000000 0.000000 0.000000 
